<?xml version="1.0" encoding="utf-8"?>
<!-- Generator: Adobe Illustrator 16.0.0, SVG Export Plug-In . SVG Version: 6.00 Build 0)  -->
<!DOCTYPE svg PUBLIC "-//W3C//DTD SVG 1.1 Basic//EN" "http://www.w3.org/Graphics/SVG/1.1/DTD/svg11-basic.dtd">
<svg version="1.1" baseProfile="basic" id="Layer_1"
	 xmlns="http://www.w3.org/2000/svg" xmlns:xlink="http://www.w3.org/1999/xlink" x="0px" y="0px" width="150px" height="25px"
	 viewBox="0 0 150 25" xml:space="preserve">
<g>
	<g id="Owl">
		<g>
			<path fill="none" stroke="#5F6C70" stroke-width="7.6162" d="M16.248,1.539"/>
			<path fill="#FFFFFF" d="M14.329,11.825c1.145,3.101,4.595,4.69,7.698,3.548c3.101-1.15,4.692-4.598,3.543-7.701
				c-1.146-3.107-4.591-4.692-7.698-3.546C14.767,5.274,13.182,8.72,14.329,11.825z"/>
			<circle fill="#FFFFFF" cx="6.667" cy="9.725" r="5.992"/>
			<path fill="#BE3538" d="M7.688,9.662c0,0.611-0.496,1.111-1.107,1.111c-0.613,0-1.108-0.5-1.108-1.111
				c0-0.61,0.495-1.104,1.108-1.104C7.192,8.558,7.688,9.052,7.688,9.662z"/>
			<path fill="#589442" d="M21.042,9.662c0,0.611-0.494,1.111-1.105,1.111c-0.615,0-1.108-0.5-1.108-1.111
				c0-0.61,0.493-1.104,1.108-1.104C20.548,8.558,21.042,9.052,21.042,9.662z"/>
			<g>
				<path d="M3.289,9.662c0,1.817,1.478,3.292,3.294,3.292c1.812,0,3.289-1.475,3.289-3.292c0-1.812-1.478-3.288-3.289-3.288
					C4.767,6.375,3.289,7.85,3.289,9.662z M4.424,9.662c0-1.188,0.971-2.155,2.161-2.155c1.188,0,2.154,0.968,2.154,2.155
					c0,1.192-0.966,2.16-2.154,2.16C5.395,11.823,4.424,10.855,4.424,9.662z"/>
			</g>
			<g>
				<path d="M16.644,9.662c0,1.817,1.476,3.292,3.292,3.292c1.813,0,3.288-1.475,3.288-3.292c0-1.812-1.475-3.288-3.288-3.288
					C18.121,6.375,16.644,7.85,16.644,9.662z M17.779,9.662c0-1.188,0.968-2.155,2.159-2.155c1.188,0,2.153,0.968,2.153,2.155
					c0,1.192-0.965,2.16-2.153,2.16C18.746,11.823,17.779,10.855,17.779,9.662z"/>
			</g>
			<g>
				<path fill="none" d="M15.517,12.667c0.54,0.824,1.29,1.489,2.206,1.912c1.291,0.597,2.737,0.652,4.07,0.161
					c2.752-1.02,4.166-4.083,3.149-6.833c-1.017-2.752-4.081-4.164-6.834-3.149c-1.333,0.492-2.395,1.475-2.991,2.766
					c-0.398,0.864-0.532,1.799-0.443,2.722"/>
				<g>
					<path fill="#FFD881" d="M17.641,3.495c0.694-0.256,1.404-0.38,2.105-0.399c-1.91-0.856-4.072-1.289-6.467-1.289
						c-2.377,0-4.57,0.444-6.479,1.259c3.455,0.069,6.264,2.775,6.506,6.185c0.059-0.783,0.25-1.557,0.588-2.29
						C14.639,5.341,15.971,4.111,17.641,3.495z"/>
				</g>
			</g>
			<path d="M25.307,5.789c0.312-1.337,1.304-2.676,1.304-2.676l-4.449-0.003c-2.495-1.611-5.524-2.465-8.881-2.465
				c-3.484,0-6.63,0.875-9.111,2.497L0,3.145c0,0,0.98,1.324,1.297,2.652C0.486,6.898,0.004,8.254,0.004,9.726
				c0,3.674,2.99,6.663,6.665,6.663c2.101,0,3.974-0.979,5.196-2.502l1.419,2.125l1.43-2.142c0.643,0.818,1.473,1.482,2.446,1.931
				c1.618,0.744,3.431,0.818,5.1,0.201c3.448-1.275,5.218-5.118,3.943-8.562C25.979,6.833,25.673,6.283,25.307,5.789z M13.28,1.808
				c2.395,0,4.557,0.433,6.467,1.289c-0.702,0.019-1.411,0.144-2.105,0.399c-1.67,0.616-3.002,1.846-3.745,3.465
				c-0.338,0.733-0.529,1.507-0.588,2.29c-0.244-3.409-3.053-6.115-6.508-6.185C8.709,2.25,10.902,1.808,13.28,1.808z
				 M11.072,12.703c-0.957,1.411-2.575,2.342-4.405,2.342c-2.934,0-5.321-2.39-5.321-5.319c0-2.935,2.388-5.32,5.321-5.32
				s5.32,2.385,5.32,5.32c0,0.179-0.035,0.348-0.053,0.521C11.845,11.147,11.556,11.99,11.072,12.703z M21.793,14.741
				c-1.333,0.491-2.779,0.435-4.07-0.161c-0.916-0.423-1.666-1.088-2.206-1.913c-0.22-0.335-0.414-0.69-0.556-1.076
				c-0.162-0.438-0.243-0.89-0.287-1.345c-0.089-0.923,0.045-1.858,0.443-2.722c0.596-1.291,1.658-2.274,2.991-2.766
				c2.753-1.015,5.817,0.397,6.834,3.149C25.958,10.658,24.545,13.723,21.793,14.741z"/>
		</g>
	</g>
	<g id="Japan">
		<path fill="#676768" d="M129.625,16.592h5.85v7.566h-0.631v-0.54h-4.598v0.592h-0.621V16.592z M134.844,17.204h-4.598v2.576h4.598
			V17.204z M130.246,23.011h4.598v-2.636h-4.598V23.011z"/>
		<path fill="#676768" d="M145.137,18.571h-3.291c0.775,1.599,2.131,3.082,3.598,3.78c-0.156,0.129-0.35,0.362-0.465,0.534
			c-1.41-0.766-2.691-2.204-3.52-3.831V22h1.803v0.614h-1.803v1.741h-0.635v-1.74h-1.826v-0.613h1.826v-2.929
			c-0.854,1.625-2.141,3.037-3.504,3.829c-0.109-0.153-0.299-0.377-0.43-0.491c1.41-0.733,2.762-2.241,3.549-3.84h-3.254v-0.614
			h3.639v-1.939l0.812,0.046c-0.008,0.063-0.053,0.108-0.178,0.127v1.769h3.678V18.571L145.137,18.571z"/>
		<path fill="#ABC99F" d="M147.861,3.906c0.951,0,1.707,0.772,1.707,1.72c0,0.961-0.756,1.728-1.719,1.728
			c-0.945,0-1.723-0.767-1.723-1.728c0-0.948,0.775-1.72,1.723-1.72H147.861z M147.844,4.25c-0.719,0-1.299,0.619-1.299,1.386
			c0,0.769,0.58,1.372,1.305,1.372c0.732,0.007,1.318-0.603,1.318-1.372c0-0.768-0.586-1.386-1.318-1.386H147.844z M147.557,6.625
			h-0.41V4.717c0.154-0.024,0.326-0.055,0.615-0.055c0.33,0,0.527,0.055,0.658,0.154c0.107,0.083,0.168,0.215,0.168,0.414
			c0,0.227-0.158,0.388-0.367,0.441v0.013c0.17,0.03,0.273,0.184,0.309,0.47c0.035,0.3,0.074,0.414,0.105,0.471h-0.422
			c-0.045-0.07-0.072-0.233-0.109-0.495c-0.033-0.207-0.154-0.292-0.363-0.292h-0.182L147.557,6.625L147.557,6.625z M147.557,5.527
			h0.188c0.238,0,0.424-0.077,0.424-0.278c0-0.16-0.119-0.283-0.395-0.283c-0.098,0-0.168,0-0.219,0.01v0.551H147.557z"/>
		<path fill="#201F1F" d="M38.23,9.195l-0.545,1.575c-1.433-0.224-2.677-0.492-3.729-0.814c-0.32-0.092-0.834-0.275-1.539-0.54
			v5.487h-1.671V4.389h1.671v3.2c0.584,0.419,1.672,0.812,3.261,1.179C36.388,8.933,37.238,9.072,38.23,9.195"/>
		<path fill="#201F1F" d="M42.685,10.563h-1.656V4.572h1.656V10.563z M48.592,8.925c0,1.117-0.147,2.041-0.44,2.773
			c-0.373,0.907-0.991,1.597-1.852,2.08c-0.977,0.543-2.18,0.937-3.614,1.175l-1.036-1.33c1.055-0.136,1.805-0.275,2.252-0.416
			c1.227-0.375,2.059-0.948,2.5-1.716c0.361-0.627,0.543-1.479,0.543-2.557c0-0.543-0.011-1.356-0.033-2.441
			c-0.02-1.083-0.031-1.752-0.031-2.001h1.71L48.592,8.925L48.592,8.925z"/>
		<path fill="#201F1F" d="M53.875,10.565l-1.322,0.632c-0.337-0.748-0.841-1.781-1.516-3.102c0.398-0.154,0.912-0.355,1.543-0.606
			C53.14,8.722,53.573,9.743,53.875,10.565"/>
		<path fill="#201F1F" d="M56.389,9.929l-1.336,0.543c-0.379-1.1-0.811-2.164-1.295-3.19l1.501-0.528
			C55.752,7.875,56.127,8.93,56.389,9.929"/>
		<path fill="#201F1F" d="M71.28,6.638c-0.308,3.021-1.448,5.247-3.406,6.675c-1.167,0.854-2.5,1.424-4.001,1.714l-1.244-1.337
			c1.754-0.328,3.135-0.864,4.145-1.602c1.431-1.059,2.317-2.687,2.654-4.883l-7.343,0.077V5.77l7.9-0.021
			C70.296,6.239,70.726,6.532,71.28,6.638 M73.171,4.75c0,0.417-0.151,0.769-0.45,1.062c-0.296,0.291-0.653,0.438-1.066,0.438
			c-0.423,0-0.78-0.147-1.068-0.438c-0.29-0.293-0.437-0.646-0.437-1.062c0-0.418,0.147-0.777,0.437-1.071
			c0.288-0.291,0.646-0.439,1.068-0.439c0.413,0,0.77,0.148,1.066,0.446C73.02,3.982,73.171,4.338,73.171,4.75 M72.432,4.75
			c0-0.212-0.079-0.4-0.233-0.554c-0.154-0.153-0.341-0.232-0.556-0.232c-0.218,0-0.399,0.079-0.55,0.232
			C70.94,4.35,70.865,4.537,70.865,4.75c0,0.218,0.074,0.401,0.228,0.552c0.151,0.15,0.332,0.227,0.55,0.227
			c0.214,0,0.401-0.077,0.556-0.227C72.353,5.151,72.432,4.968,72.432,4.75"/>
		<path fill="#589341" d="M85.461,5.022c0,0.827-0.18,1.688-0.531,2.584c-0.295,0.735-0.686,1.36-1.176,1.886
			c-0.529,0.55-1.043,0.943-1.544,1.175l-1.278-0.982c1.188-0.603,1.967-1.366,2.328-2.289c0.086-0.224,0.188-0.569,0.297-1.043
			l-8.379,0.063v-1.5h10.286v0.106H85.461z M80.969,7.192c0,1.05-0.025,1.813-0.064,2.285c-0.07,0.852-0.223,1.598-0.453,2.234
			c-0.277,0.741-0.717,1.378-1.309,1.916c-0.769,0.687-1.613,1.174-2.539,1.469l-1.217-1.188c1.578-0.418,2.676-1.168,3.292-2.248
			c0.231-0.414,0.389-0.883,0.479-1.407c0.076-0.485,0.117-0.986,0.117-1.51c0-0.171-0.008-0.431-0.014-0.774
			c-0.009-0.347-0.017-0.601-0.017-0.777H80.969z"/>
		<path fill="#589341" d="M95.818,9.246l-0.547,1.577c-1.447-0.224-2.699-0.497-3.742-0.817c-0.324-0.101-0.84-0.282-1.539-0.543
			v5.492h-1.658V4.442h1.658v3.204c0.586,0.42,1.672,0.81,3.264,1.163C94.092,8.994,94.945,9.141,95.818,9.246 M94.188,3.926
			l-0.363,2.026l-0.947-0.14l0.246-2.042L94.188,3.926z M96.051,3.871l-0.529,2.08l-0.949-0.165l0.354-2.094L96.051,3.871z"/>
		<path fill="#589341" d="M102.074,5.437c-0.094,4.683-1.344,7.739-3.74,9.173l-1.191-1.089c0.666-0.438,1.217-0.946,1.658-1.523
			c0.988-1.3,1.498-3.489,1.516-6.56L102.074,5.437L102.074,5.437z M109.043,13.418l-1.207,1.199
			c-1.328-0.943-2.297-2.311-2.9-4.094c-0.465-1.378-0.73-3.074-0.789-5.088h1.736c0,1.293,0.096,2.432,0.283,3.422
			c0.225,1.187,0.625,2.178,1.203,2.97C107.793,12.406,108.35,12.934,109.043,13.418 M107.707,4.119l-0.311,2.029l-0.947-0.13
			l0.258-2.017L107.707,4.119z M109.324,4.119l-0.385,2.029l-0.945-0.13l0.301-2.017L109.324,4.119z"/>
		<path fill="#589341" d="M119.834,4.933c-0.285,0.456-0.736,0.979-1.357,1.576c-0.66,0.627-1.188,1.076-1.582,1.341v7.105h-1.725
			l0.014-6.03c-1.613,0.92-3.02,1.544-4.213,1.87l-0.969-1.343c2.137-0.519,4.023-1.421,5.676-2.71
			c1.172-0.914,2.002-1.781,2.484-2.608L119.834,4.933z"/>
		<path fill="#589341" d="M132.188,8.638h-2.463c-0.014,0.044-0.016,0.181-0.016,0.415c-0.008,0.618-0.07,1.187-0.189,1.703
			c-0.346,1.498-1.076,2.593-2.189,3.281c-0.689,0.434-1.508,0.758-2.447,0.98l-1.035-1.098c1.145-0.283,2.004-0.625,2.578-1.021
			c0.609-0.42,1.049-0.955,1.305-1.6c0.26-0.62,0.404-1.448,0.414-2.49V8.638h-3.016v2.661h-1.594V8.638h-2.381V7.242h2.381V4.699
			h1.607v2.543h3V4.61h1.623v2.632h2.422V8.638z M131.545,3.586l-0.277,2.017L130.293,5.5l0.232-2.04L131.545,3.586z M133.197,3.615
			l-0.438,2.081l-0.924-0.17l0.283-2.065L133.197,3.615z"/>
		<rect x="134.525" y="8.703" fill="#589341" width="10.945" height="1.561"/>
		<path fill="#201F1F" d="M51.958,14.125l0.957,1.135c0,0,3.301-0.504,5.045-2.731c0,0,1.317-1.503,1.742-4.833l-1.581-0.437
			c0,0-0.28,3.16-1.294,4.336C56.828,11.595,55.555,13.59,51.958,14.125z"/>
	</g>
</g>
</svg>
